<?xml version="1.0" standalone="no"?>
<!DOCTYPE svg PUBLIC "-//W3C//DTD SVG 20010904//EN"
 "http://www.w3.org/TR/2001/REC-SVG-20010904/DTD/svg10.dtd">
<svg version="1.0" xmlns="http://www.w3.org/2000/svg"
 width="517.000000pt" height="517.000000pt" viewBox="0 0 517.000000 517.000000"
 preserveAspectRatio="xMidYMid meet">
<metadata>
Created by potrace 1.14, written by Peter Selinger 2001-2017
</metadata>
<g transform="translate(0.000000,517.000000) scale(0.100000,-0.100000)"
fill="#000000" stroke="none">
<path d="M2307 5023 c-1 -1 -47 -2 -102 -4 -55 -1 -113 -6 -130 -10 -16 -4
-50 -10 -75 -13 -55 -5 -206 -42 -252 -60 -18 -7 -42 -17 -53 -21 -11 -5 -22
-9 -25 -10 -60 -16 -147 -59 -268 -132 -57 -35 -108 -68 -115 -73 -7 -5 -39
-31 -72 -57 -169 -132 -291 -312 -298 -440 -3 -45 -4 -47 -56 -74 -29 -15 -67
-43 -83 -61 -39 -42 -113 -157 -123 -189 -4 -13 -11 -28 -15 -34 -17 -24 -69
-197 -86 -290 -43 -243 -50 -510 -18 -720 17 -106 79 -311 109 -360 7 -11 16
-31 20 -43 6 -20 4 -23 -12 -18 -10 3 -35 1 -56 -3 -95 -22 -151 -167 -123
-316 21 -107 44 -174 121 -355 66 -154 124 -249 167 -275 29 -17 78 -17 118
-1 12 5 21 -11 39 -71 13 -43 29 -91 36 -108 7 -16 21 -52 32 -80 16 -42 65
-130 116 -209 17 -27 39 -56 58 -76 8 -9 22 -26 31 -39 36 -51 165 -176 243
-236 28 -20 52 -41 55 -45 13 -19 237 -164 330 -213 257 -135 435 -180 715
-179 174 0 285 17 435 69 75 25 225 89 246 105 6 4 41 23 77 42 221 115 530
374 623 522 10 16 28 41 39 55 53 65 185 377 185 436 0 25 2 25 43 18 78 -14
99 -8 140 38 61 68 178 324 231 505 21 72 25 104 23 187 -3 105 -13 138 -61
190 -34 37 -75 49 -125 35 -23 -6 -41 -15 -41 -19 0 -9 -30 -24 -36 -18 -2 2
8 32 22 68 40 98 111 319 118 364 3 22 8 51 10 64 10 48 17 138 17 226 0 90
-10 265 -16 275 -2 3 -6 34 -10 70 -3 35 -8 67 -11 71 -2 4 -6 24 -9 45 -3 22
-10 55 -15 74 -57 207 -83 287 -99 303 -6 6 -11 18 -11 27 0 9 -5 21 -11 27
-6 6 -12 17 -13 24 -4 19 -18 53 -25 59 -3 3 -17 25 -30 50 -14 25 -27 47 -30
50 -4 3 -23 30 -44 60 -160 236 -493 494 -791 613 -122 49 -300 103 -405 122
-14 3 -37 7 -51 10 -14 3 -56 10 -95 16 -38 6 -81 13 -95 15 -43 9 -407 24
-413 17z"/>
</g>
</svg>
